<?xml version="1.0"?>
<svg xmlns="http://www.w3.org/2000/svg" xmlns:xlink="http://www.w3.org/1999/xlink" xmlns:svgjs="http://svgjs.com/svgjs" version="1.1" width="512" height="512" x="0" y="0" viewBox="0 0 512 512" style="enable-background:new 0 0 512 512" xml:space="preserve" class=""><g><path xmlns="http://www.w3.org/2000/svg" d="m488 424v72h-216v-72a32.00409 32.00409 0 0 1 32-32h152a32.00409 32.00409 0 0 1 32 32z" fill="#ffa100" data-original="#ffa100" style="" class=""/><path xmlns="http://www.w3.org/2000/svg" d="m439.15991 420.41992-14.21997-28.41992h-17.88989l13.10986 26.21-28.92969 5.79h-30.46044l-28.92969-5.79 13.10991-26.21h-17.8999l-14.21 28.41992a7.99943 7.99943 0 0 0 5.58984 11.41992l25.34006 5.07032-13.42993 13.42968a8.00843 8.00843 0 0 0 .65993 11.91016l40 32a8.01786 8.01786 0 0 0 10 0l40-32a8.00843 8.00843 0 0 0 .65991-11.91016l-13.42991-13.42968 25.34009-5.07032a7.99943 7.99943 0 0 0 5.58984-11.41992zm-75.83984 19.58008h4.67993v31.35156l-20.02-16.01172zm20.67993 31.35156v-31.35156h4.67993l15.34007 15.33984z" fill="#f78e00" data-original="#f78e00" style="" class=""/><path xmlns="http://www.w3.org/2000/svg" d="m416 392-40 56-22.87-32.02-17.13-23.98z" fill="#ffceb6" data-original="#ffceb6" style=""/><path xmlns="http://www.w3.org/2000/svg" d="m240 208v144h-216v-144a32.00409 32.00409 0 0 1 32-32h152a32.00409 32.00409 0 0 1 32 32z" fill="#ffa100" data-original="#ffa100" style="" class=""/><path xmlns="http://www.w3.org/2000/svg" d="m393.58008 392a47.95191 47.95191 0 0 1 -40.4502 23.98l-17.12988-23.98z" fill="#ffbfa1" data-original="#ffbfa1" style=""/><path xmlns="http://www.w3.org/2000/svg" d="m224 456h-24v32l-48-32h-112a16 16 0 0 1 -16-16v-112a16 16 0 0 1 16-16h184a16 16 0 0 1 16 16v112a16 16 0 0 1 -16 16z" fill="#4f5dff" data-original="#4f5dff" style="" class=""/><path xmlns="http://www.w3.org/2000/svg" d="m288 168h16v32l48-32h120a16 16 0 0 0 16-16v-112a16 16 0 0 0 -16-16h-184a16 16 0 0 0 -16 16v112a16 16 0 0 0 16 16z" fill="#4f5dff" data-original="#4f5dff" style="" class=""/><g xmlns="http://www.w3.org/2000/svg" fill="#3942ed"><path d="m336 56h24v16h-24z" fill="#3942ed" data-original="#3942ed" style="" class=""/><path d="m376 56h80v16h-80z" fill="#3942ed" data-original="#3942ed" style="" class=""/><path d="m304 88h72v16h-72z" fill="#3942ed" data-original="#3942ed" style="" class=""/><path d="m392 88h64v16h-64z" fill="#3942ed" data-original="#3942ed" style="" class=""/><path d="m304 120h40v16h-40z" fill="#3942ed" data-original="#3942ed" style="" class=""/><path d="m360 120h48v16h-48z" fill="#3942ed" data-original="#3942ed" style="" class=""/><path d="m152 344h24v16h-24z" fill="#3942ed" data-original="#3942ed" style="" class=""/><path d="m56 344h80v16h-80z" fill="#3942ed" data-original="#3942ed" style="" class=""/><path d="m136 376h72v16h-72z" fill="#3942ed" data-original="#3942ed" style="" class=""/><path d="m56 376h64v16h-64z" fill="#3942ed" data-original="#3942ed" style="" class=""/><path d="m168 408h40v16h-40z" fill="#3942ed" data-original="#3942ed" style="" class=""/><path d="m104 408h48v16h-48z" fill="#3942ed" data-original="#3942ed" style="" class=""/></g><path xmlns="http://www.w3.org/2000/svg" d="m144 216 21.333 96h-58.666l21.333-96z" fill="#335eea" data-original="#ef5e3b" style="" class=""/><path xmlns="http://www.w3.org/2000/svg" d="m128 216-8-16 16-16 16 16-8 16z" fill="#335eea" data-original="#e04f2b" style="" class=""/><path xmlns="http://www.w3.org/2000/svg" d="m192.60986 176-17.17993 42.97a8.00712 8.00712 0 0 1 -13.08984 2.68994l-26.34009-26.34988-26.34009 26.34985a8.00233 8.00233 0 0 1 -13.08984-2.68991l-17.17993-42.97h17.21972l10.31006 25.76 23.42017-23.42017a8.01538 8.01538 0 0 1 11.31982 0l23.42017 23.42017 10.31006-25.76z" fill="#f78e00" data-original="#f78e00" style="" class=""/><path xmlns="http://www.w3.org/2000/svg" d="m184 64v72a48 48 0 0 1 -48 48 48 48 0 0 1 -48-48v-32l40-40z" fill="#ffceb6" data-original="#ffceb6" style=""/><circle xmlns="http://www.w3.org/2000/svg" cx="128" cy="104" fill="#c47220" r="8" data-original="#c47220" style=""/><path xmlns="http://www.w3.org/2000/svg" d="m184 64 5.06751-2.53375a19.77708 19.77708 0 0 0 10.93249-17.68915 19.77706 19.77706 0 0 0 -19.77707-19.7771h-52.22293a40 40 0 0 0 -40 40v40l40-40z" fill="#c47220" data-original="#c47220" style=""/><path xmlns="http://www.w3.org/2000/svg" d="m160 152h-20.68652a35.08383 35.08383 0 0 1 -24.97022-10.34277l11.31348-11.31446a19.18715 19.18715 0 0 0 13.65674 5.65723h20.68652z" fill="#ffb089" data-original="#ffb089" style="" class=""/><circle xmlns="http://www.w3.org/2000/svg" cx="160" cy="104" fill="#c47220" r="8" data-original="#c47220" style=""/><circle xmlns="http://www.w3.org/2000/svg" cx="416" cy="272" fill="#b66514" r="64" data-original="#b66514" style=""/><path xmlns="http://www.w3.org/2000/svg" d="m328 320v-32a48 48 0 0 1 48-48h.0001a48 48 0 0 1 48 48v32z" fill="#c47220" data-original="#c47220" style=""/><path xmlns="http://www.w3.org/2000/svg" d="m328 312v40a48 48 0 0 0 48 48h.0001a48 48 0 0 0 48-48v-32l-1.98712-.33119a101.015 101.015 0 0 1 -70.01298-47.66881z" fill="#ffceb6" data-original="#ffceb6" style=""/><circle xmlns="http://www.w3.org/2000/svg" cx="384" cy="320" fill="#c47220" r="8" data-original="#c47220" style=""/><path xmlns="http://www.w3.org/2000/svg" d="m372.68652 368h-20.68652v-16h20.68652a19.18268 19.18268 0 0 0 13.65625-5.65723l11.31446 11.31446a35.08246 35.08246 0 0 1 -24.97071 10.34277z" fill="#ffb089" data-original="#ffb089" style="" class=""/><circle xmlns="http://www.w3.org/2000/svg" cx="352" cy="320" fill="#c47220" r="8" data-original="#c47220" style=""/></g></svg>
