<?xml version="1.0"?>
<svg xmlns="http://www.w3.org/2000/svg" xmlns:xlink="http://www.w3.org/1999/xlink" xmlns:svgjs="http://svgjs.com/svgjs" version="1.1" width="512" height="512" x="0" y="0" viewBox="0 0 512 512" style="enable-background:new 0 0 512 512" xml:space="preserve" class=""><g><path xmlns="http://www.w3.org/2000/svg" d="m144.00006 488-35.37839-17.68919a64 64 0 0 0 -57.24334 0l-19.37833 9.68919 35.42856-212.57144 36.57144-35.42856h268.8l3.19987 23.999a357.61 357.61 0 0 0 101.60456 205.6054l10.39557 10.3956-36.232 9.058a84.96483 84.96483 0 0 1 -54.07626-4.333h-.00006a84.96481 84.96481 0 0 0 -60.33749-2.50971l-41.35428 13.78471z" fill="#ffc431" data-original="#ffc431" style="" class=""/><path xmlns="http://www.w3.org/2000/svg" d="m394.87842 430.14551c-4.34815-3.623-8.58154-7.4834-12.583-11.47168l11.2959-11.332c3.6665 3.65527 7.5459 7.1914 11.53027 10.51269z" fill="#ffb401" data-original="#ffb401" style="" class=""/><path xmlns="http://www.w3.org/2000/svg" d="m370.8418 406.19629a191.989 191.989 0 0 1 -40.20557-81.45508l-10.4458-47.00586 15.61914-3.4707 10.4458 47.00586a175.92584 175.92584 0 0 0 36.84131 74.63867z" fill="#ffb401" data-original="#ffb401" style="" class=""/><path xmlns="http://www.w3.org/2000/svg" d="m488 63.68994a44.29407 44.29407 0 0 1 -3.01 16.05006l-49.18995 126.49a32.03976 32.03976 0 0 1 -12.64014 15.3999l-30.54991 19.44017-48.61 30.92993-24 112h-176l-24-112-40 40v72l12.65991 18.99a7.34069 7.34069 0 0 1 -9.38991 10.63988l-11.27-5.62988v24h-32a15.99564 15.99564 0 0 1 -16-16v-112.8a55.99353 55.99353 0 0 1 16.4-39.5999l59.88-59.8801a39.99389 39.99389 0 0 1 28.29-11.72h207.43l48-24 40-96v-25.53a6.48694 6.48694 0 0 1 6.47-6.47 6.47209 6.47209 0 0 1 2.9.67993l14.63 7.32007 16-24 4.29 2.85986a44.27 44.27 0 0 1 19.71 36.83008z" fill="#ffceb6" data-original="#ffceb6" style="" class=""/><path xmlns="http://www.w3.org/2000/svg" d="m392.61 241.07007-48.61 30.92993-24 112h-176l-24-112-24 24-44-44 48.28-48.28a39.99389 39.99389 0 0 1 28.29-11.72h207.43l22.22-11.10986z" fill="#ffa100" data-original="#ffa100" style="" class=""/><path xmlns="http://www.w3.org/2000/svg" d="m224 232-16 96 24 24 24-24-16-96z" fill="#335eea" data-original="#ef5e3b" style="" class=""/><path xmlns="http://www.w3.org/2000/svg" d="m248 216-8 16h-16l-8-16 16-16z" fill="#335eea" data-original="#e04f2b" style="" class=""/><path xmlns="http://www.w3.org/2000/svg" d="m208 496 24-48v48h88v-112h-176l-16 112z" fill="#718799" data-original="#718799" style="" class=""/><path xmlns="http://www.w3.org/2000/svg" d="m288.62 192-17.19007 42.97a8.00712 8.00712 0 0 1 -13.08984 2.68994l-26.34009-26.34988-26.34009 26.34985a8.00229 8.00229 0 0 1 -13.08984-2.68991l-17.19007-42.97h17.23l10.30993 25.76 23.42017-23.42017a8.01538 8.01538 0 0 1 11.31982 0l23.42016 23.42017 10.29992-25.76z" fill="#f78e00" data-original="#f78e00" style="" class=""/><path xmlns="http://www.w3.org/2000/svg" d="m280 80v72a48 48 0 0 1 -48 48 48 48 0 0 1 -48-48v-32l40-40z" fill="#ffceb6" data-original="#ffceb6" style="" class=""/><circle xmlns="http://www.w3.org/2000/svg" cx="224" cy="120" fill="#c47220" r="8" data-original="#c47220" style=""/><path xmlns="http://www.w3.org/2000/svg" d="m280 80 5.06751-2.53375a19.77708 19.77708 0 0 0 10.93249-17.68915 19.77706 19.77706 0 0 0 -19.77707-19.7771h-52.22293a40 40 0 0 0 -40 40v40l40-40z" fill="#c47220" data-original="#c47220" style=""/><path xmlns="http://www.w3.org/2000/svg" d="m256 168h-20.68652a35.08383 35.08383 0 0 1 -24.97022-10.34277l11.31348-11.31446a19.18715 19.18715 0 0 0 13.65674 5.65723h20.68652z" fill="#ffb089" data-original="#ffb089" style=""/><circle xmlns="http://www.w3.org/2000/svg" cx="256" cy="120" fill="#c47220" r="8" data-original="#c47220" style=""/><g xmlns="http://www.w3.org/2000/svg" fill="#ffc431"><path d="m160 240a18.88735 18.88735 0 0 1 -18.63036-15.78229l-5.36964-32.21771h48l-5.36962 32.21771a18.88735 18.88735 0 0 1 -18.63038 15.78229z" fill="#ffc431" data-original="#ffc431" style="" class=""/><path d="m304 240a18.88737 18.88737 0 0 0 18.63038-15.78229l5.36962-32.21771h-48l5.36962 32.21771a18.88737 18.88737 0 0 0 18.63038 15.78229z" fill="#ffc431" data-original="#ffc431" style="" class=""/></g></g></svg>
