<?xml version="1.0"?>
<svg xmlns="http://www.w3.org/2000/svg" xmlns:xlink="http://www.w3.org/1999/xlink" xmlns:svgjs="http://svgjs.com/svgjs" version="1.1" width="512" height="512" x="0" y="0" viewBox="0 0 512 512" style="enable-background:new 0 0 512 512" xml:space="preserve" class=""><g><path xmlns="http://www.w3.org/2000/svg" d="m344 288h120l19.82668-92.52451a188.00774 188.00774 0 0 0 4.17332-39.3931v-.00006a44.08233 44.08233 0 0 0 -44.08233-44.08233h-98.79179a32 32 0 0 0 -26.62561 14.24959l-6.50027 9.75041v56z" fill="#ffa100" data-original="#ffa100" style="" class=""/><path xmlns="http://www.w3.org/2000/svg" d="m68.08233 112a44.08233 44.08233 0 0 0 -44.08233 44.08233v139.91767h144v-48h32v-112l-6.50028-9.75043a32 32 0 0 0 -26.6256-14.24957z" fill="#ffa100" data-original="#ffa100" style="" class=""/><path xmlns="http://www.w3.org/2000/svg" d="m256 216h-64a16 16 0 0 1 -16-16v-48a16 16 0 0 1 16-16h64z" fill="#4f5dff" data-original="#4f5dff" style="" class=""/><path xmlns="http://www.w3.org/2000/svg" d="m320 216h-64v-28h-13.44141a15.92024 15.92024 0 0 1 -11.06634 3.99207 16.00006 16.00006 0 0 1 .50775-31.99207 15.92059 15.92059 0 0 1 10.55859 4h13.44141v-28h28v13.44141a15.92024 15.92024 0 0 0 -3.99207 11.06634 16.00006 16.00006 0 0 0 31.99207-.50775 15.92059 15.92059 0 0 0 -4-10.55859v-13.44141h12a16 16 0 0 1 16 16v48a16 16 0 0 1 -16 16z" fill="#788dff" data-original="#788dff" style="" class=""/><path xmlns="http://www.w3.org/2000/svg" d="m224 216h96v32h-96z" fill="#ffb089" data-original="#ffb089" style="" class=""/><path xmlns="http://www.w3.org/2000/svg" d="m192 248h53.68521a10.31479 10.31479 0 0 0 10.31479-10.31479 10.31477 10.31477 0 0 0 -4.80677-8.721l-20.52659-12.96421h-38.66664z" fill="#ffbfa1" data-original="#ffbfa1" style="" class=""/><path xmlns="http://www.w3.org/2000/svg" d="m344 432h128v64h-128z" fill="#ffceb6" data-original="#ffceb6" style="" class=""/><path xmlns="http://www.w3.org/2000/svg" d="m128 152 8-16-16-16-16 16 8 16z" fill="#335eea" data-original="#e04f2b" style="" class=""/><path xmlns="http://www.w3.org/2000/svg" d="m112 152-10.182 45.818 10.182 18.182h32l-16-64z" fill="#335eea" data-original="#ef5e3b" style="" class=""/><path xmlns="http://www.w3.org/2000/svg" d="m168 264.00019a7.99981 7.99981 0 0 1 -7.99981 7.99981h-57.02558a48.16068 48.16068 0 0 1 -41.46094-23.81445l-17.0599-29.24443a7.9998 7.9998 0 0 1 2.87888-10.94091l.00042-.00021a7.99981 7.99981 0 0 1 10.94114 2.879l17.05979 29.24454a32.1073 32.1073 0 0 0 27.64061 15.87646h57.02558a7.99981 7.99981 0 0 1 7.99981 7.99981z" fill="#f78e00" data-original="#f78e00" style="" class=""/><path xmlns="http://www.w3.org/2000/svg" d="m168 216 26.55214-13.27607a8.45068 8.45068 0 0 1 9.75478 1.583 8.45067 8.45067 0 0 1 2.04148 8.64785l-6.3484 19.04522 26.53375 13.26688a9.88853 9.88853 0 0 1 5.46625 8.84457 9.88854 9.88854 0 0 1 -9.88853 9.88855h-54.11147z" fill="#ffceb6" data-original="#ffceb6" style="" class=""/><path xmlns="http://www.w3.org/2000/svg" d="m168 216.00019a7.99981 7.99981 0 0 1 -7.99981 7.99981h-48.00019a7.99943 7.99943 0 0 1 -6.65625-3.5625l-27.5625-41.34376a7.9998 7.9998 0 0 1 2.21875-11.09374 7.9998 7.9998 0 0 1 11.09374 2.21874l25.18751 37.78126h43.71894a7.99981 7.99981 0 0 1 7.99981 7.99981z" fill="#f78e00" data-original="#f78e00" style="" class=""/><path xmlns="http://www.w3.org/2000/svg" d="m409.02539 272h-57.02539a8 8 0 0 1 -8-8 8 8 0 0 1 8-8h57.0254a31.99964 31.99964 0 0 0 27.6406-15.87587l8.39308-14.388a7.99981 7.99981 0 0 1 10.94082-2.87925 7.99982 7.99982 0 0 1 2.87931 10.941l-8.39285 14.38765a48.16068 48.16068 0 0 1 -41.46097 23.81447z" fill="#f78e00" data-original="#f78e00" style="" class=""/><path xmlns="http://www.w3.org/2000/svg" d="m344 216-26.55213-13.27607a8.45069 8.45069 0 0 0 -9.75478 1.583 8.45068 8.45068 0 0 0 -2.04149 8.64786l6.3484 19.04521-26.53375 13.26688a9.88853 9.88853 0 0 0 -5.46625 8.84457 9.88854 9.88854 0 0 0 9.88853 9.88855h54.11147z" fill="#ffceb6" data-original="#ffceb6" style="" class=""/><path xmlns="http://www.w3.org/2000/svg" d="m448 136v-24h-16v17.75391l-24.98535 6.24609h-14.0293l-24.98535-6.24609v-17.75391h-16v24a8.00005 8.00005 0 0 0 6.05957 7.76123l11.01953 2.75488-12.65722 6.32862a8.00064 8.00064 0 0 0 -2.07911 12.812l40 40a7.99541 7.99541 0 0 0 1.97461 1.44543l-.59863.89784h-43.71875a8 8 0 0 0 0 16h48a7.99943 7.99943 0 0 0 6.65625-3.5625l31.55957-47.33936 7.44141-7.4414a8.00064 8.00064 0 0 0 -2.07911-12.812l-12.65722-6.32862 11.01953-2.75488a8.00005 8.00005 0 0 0 6.05957-7.76124zm-56 44.68652-18.49512-18.49511 18.49512-9.24714zm16-27.74225 18.49512 9.24714-18.49512 18.49511z" fill="#f78e00" data-original="#f78e00" style="" class=""/><path xmlns="http://www.w3.org/2000/svg" d="m376 112 24 48 14.23-28.47 9.77-19.53z" fill="#ffceb6" data-original="#ffceb6" style="" class=""/><path xmlns="http://www.w3.org/2000/svg" d="m24 496v-200h144v200h-48l-24-136-24 136z" fill="#718799" data-original="#718799" style="" class=""/><path xmlns="http://www.w3.org/2000/svg" d="m400 432h16v64h-16z" fill="#ffbfa1" data-original="#ffbfa1" style="" class=""/><path xmlns="http://www.w3.org/2000/svg" d="m344 288-16 144h160l-24-144z" fill="#718799" data-original="#718799" style="" class=""/><path xmlns="http://www.w3.org/2000/svg" d="m140.686 152-20.686-20.686-20.686 20.686a8.00018 8.00018 0 0 1 -11.31371.00024 8.00018 8.00018 0 0 1 -.00029-11.31424l26.34278-26.34278a8.00122 8.00122 0 0 1 11.31446 0l26.34276 26.34278a8.00018 8.00018 0 0 1 -.00025 11.3142 8.00018 8.00018 0 0 1 -11.31375-.0002z" fill="#f78e00" data-original="#f78e00" style="" class=""/><path xmlns="http://www.w3.org/2000/svg" d="m120 120a24 24 0 0 1 -24-24v-8l16-16h32v24a24 24 0 0 1 -24 24z" fill="#ffceb6" data-original="#ffceb6" style="" class=""/><path xmlns="http://www.w3.org/2000/svg" d="m144 72 6.63344-13.26688a12.94424 12.94424 0 0 0 1.36656-5.78885 12.94426 12.94426 0 0 0 -12.94426-12.94427h-19.05574a24 24 0 0 0 -24 24v24l16-16z" fill="#c47220" data-original="#c47220" style="" class=""/><path xmlns="http://www.w3.org/2000/svg" d="m424 112-9.77 19.53a36.05671 36.05671 0 0 1 -26.47023-19.53z" fill="#ffbfa1" data-original="#ffbfa1" style="" class=""/><circle xmlns="http://www.w3.org/2000/svg" cx="424" cy="56" fill="#b66514" r="32" data-original="#b66514" style="" class=""/><path xmlns="http://www.w3.org/2000/svg" d="m376 88v-16a24 24 0 0 1 24-24 24 24 0 0 1 24 24v16z" fill="#c47220" data-original="#c47220" style="" class=""/><path xmlns="http://www.w3.org/2000/svg" d="m400 120a24 24 0 0 0 24-24v-8h-6.11147a28.94425 28.94425 0 0 1 -25.88853-16l-16 16v8a24 24 0 0 0 24 24z" fill="#ffceb6" data-original="#ffceb6" style="" class=""/></g></svg>
