<?xml version="1.0" encoding="UTF-8" standalone="no"?>
<svg
   xmlns:dc="http://purl.org/dc/elements/1.1/"
   xmlns:cc="http://creativecommons.org/ns#"
   xmlns:rdf="http://www.w3.org/1999/02/22-rdf-syntax-ns#"
   xmlns:svg="http://www.w3.org/2000/svg"
   xmlns="http://www.w3.org/2000/svg"
   xmlns:sodipodi="http://sodipodi.sourceforge.net/DTD/sodipodi-0.dtd"
   xmlns:inkscape="http://www.inkscape.org/namespaces/inkscape"
   width="210mm"
   height="297mm"
   viewBox="0 0 210 297"
   version="1.1"
   id="svg8"
   inkscape:version="1.0.1 (3bc2e813f5, 2020-09-07)"
   sodipodi:docname="logo.svg">
  <defs
     id="defs2" />
  <sodipodi:namedview
     id="base"
     pagecolor="#ffffff"
     bordercolor="#666666"
     borderopacity="1.0"
     inkscape:pageopacity="0.0"
     inkscape:pageshadow="2"
     inkscape:zoom="0.35"
     inkscape:cx="400"
     inkscape:cy="560"
     inkscape:document-units="mm"
     inkscape:current-layer="layer1"
     inkscape:document-rotation="0"
     showgrid="false"
     inkscape:window-width="1680"
     inkscape:window-height="987"
     inkscape:window-x="-8"
     inkscape:window-y="-8"
     inkscape:window-maximized="1" />
  <metadata
     id="metadata5">
    <rdf:RDF>
      <cc:Work
         rdf:about="">
        <dc:format>image/svg+xml</dc:format>
        <dc:type
           rdf:resource="http://purl.org/dc/dcmitype/StillImage" />
        <dc:title></dc:title>
      </cc:Work>
    </rdf:RDF>
  </metadata>
  <g
     inkscape:label="Warstwa 1"
     inkscape:groupmode="layer"
     id="layer1">
    <g
       id="g64"
       transform="matrix(0.26458333,0,0,0.26458333,-2.1332586,79.493528)">
      <path
         d="M 647.529,269.4446 H 180.025 l 12.8435,-11.1803 h 441.817 z"
         style="fill:#1b1918;fill-rule:evenodd"
         id="path10" />
      <g
         id="Layer1000"
         transform="translate(11.428571,5.7142858)">
        <text
           x="203.82588"
           y="475.159"
           id="text24"><tspan
             font-family="Arial"
             font-size="72px"
             fill="#0078b2"
             id="tspan12">BHP</tspan><tspan
             font-family="Arial"
             font-size="72px"
             fill="#009ee0"
             id="tspan14" /><tspan
             font-family="Arial"
             font-size="72px"
             fill="#e52134"
             id="tspan16">&amp;</tspan><tspan
             font-family="Arial"
             font-size="72px"
             fill="#009ee0"
             id="tspan18" /><tspan
             font-family="Arial"
             font-size="72px"
             fill="#0078b2"
             id="tspan20">PPO</tspan><tspan
             font-family="Arial"
             font-size="72px"
             fill="#0078b2"
             id="tspan22">Ż</tspan></text>
      </g>
      <path
         d="M 413.7323,19.8926 496.056,137.3497 580.5207,253.806 413.7323,252.8051 246.9439,253.806 331.4085,137.3498 Z"
         style="fill:#e52134;fill-rule:evenodd"
         id="path29" />
      <g
         id="Layer1001">
        <path
           d="m 371.0712,219.2782 c 6.0534,-29.4082 14.6212,-31.4215 35.6264,-47.8311 9.677,-7.5594 22.7165,-24.5395 18.4004,-39.0547 -4.1927,-14.0989 6.2334,-0.7968 9.396,4.827 11.1489,19.8228 3.8188,29.0316 -2.7405,46.9534 -3.2032,8.7529 -4.698,16.0708 -4.698,25.4515 0,29.7967 21.11,-47.971 20.0679,-41.7742 -7.2329,43.0086 32.3583,44.7519 35.5249,80.3901 6.5417,73.6274 -137.7749,56.7238 -138.0127,11.7437 -0.1391,-26.2825 4.9694,-47.8177 21.7376,-60.8913 4.5909,-3.5795 -5.7314,11.8026 -4.3064,17.5527 1.7166,6.929 8.2214,11.265 9.0044,2.6329 z"
           style="fill:#ffffff;fill-rule:evenodd"
           id="path33" />
        <path
           d="m 432.0371,267.1914 c -2.137,-9.8734 -8.1643,-17.5733 -13.9079,-25.8114 -2.5629,-3.5988 -4.5179,-7.3093 -5.4193,-11.4566 -0.7696,-3.7463 -1.3165,-7.655 -0.8705,-11.6249 -6.5144,6.2401 -11.2561,13.6729 -14.4174,22.2729 l -0.1825,1.127 c -0.3444,0.9139 -0.7193,2.0155 -1.0638,2.9293 -0.9878,3.758 -1.7592,7.5887 -2.7751,11.3459 -0.009,-0.1786 -0.0184,-0.3536 -0.028,-0.5187 0.005,-0.2323 0.0108,-0.4642 0.0163,-0.6964 -0.2964,-5.4542 -1.0318,-10.3284 -2.2536,-14.6229 -0.1047,2.4372 -0.443,4.758 -0.8258,6.9625 -0.4357,2.4368 -1.0993,4.5255 -1.902,6.4979 -1.8079,4.5249 -3.6549,8.7018 -4.6899,14.5035 -0.1728,0.9388 -0.2798,1.8982 -0.3285,2.8565 -0.1939,0.5566 -0.3409,1.1298 -0.4362,1.7185 -0.5094,3.1469 0.5149,6.2492 2.6602,8.924 0.5792,0.9359 1.2258,1.6111 1.948,2.0411 2.9328,2.6151 7.0464,4.6115 11.8206,5.5069 0.5646,0.1616 1.1332,0.3094 1.7045,0.4426 2.8569,0.568 5.7745,0.7604 8.753,0.5772 5.7644,-0.3919 10.7792,-2.2254 15.2674,-5.663 5.4101,-4.2753 8.4294,-10.7839 6.9305,-17.3119 z"
           style="fill:#0078b2;fill-rule:evenodd"
           id="path35" />
      </g>
      <path
         d="m 241.7449,395.74133 h 9.7776 v -71.2256 h -9.4941 v -7.8165 h 37.4882 v 7.8165 h -10.3587 v 71.2256 h 10.0752 v 7.8165 h -37.4882 z m 314.9785,-14.1197 h -36.2781 l -9.4071,21.8554 h -18.7897 l 38.2181,-85.7591 h 16.1127 l 38.1938,85.7591 h -18.618 z m -18.2741,-43.2734 c -3.3648,8.9915 -6.3615,16.4736 -8.9895,22.5119 l -3.316,7.6133 h 24.8811 l -3.291,-7.6133 c -2.653,-6.082 -5.6492,-13.564 -9.0145,-22.5119 z m -132.9928,65.1288 v -85.7591 h 17.6354 v 39.0291 h 0.2702 l 36.3518,-39.0291 h 21.8599 l -40.134,42.4857 43.4497,43.2734 h -22.597 l -38.9304,-38.7229 h -0.2702 v 38.7229 z m -60.0931,-45.8986 c 6.9021,8.7727 12.5266,16.5394 16.8251,23.3431 h 0.4419 c -0.5893,-11.1575 -0.8595,-19.2739 -0.8595,-24.3715 v -38.8321 h 17.6108 v 85.7591 h -18.4705 l -31.3901,-39.4886 c -5.502,-6.8258 -11.2249,-14.7452 -17.1198,-23.7807 h -0.4422 c 0.5899,10.5231 0.8844,18.6614 0.8844,24.4369 v 38.8324 H 295.208 v -85.7591 h 18.4953 z"
         style="fill:#1b1918;fill-rule:evenodd"
         id="path38" />
    </g>
  </g>
</svg>
