<svg id="flat-export" height="512" viewBox="0 0 512 512" width="512" xmlns="http://www.w3.org/2000/svg"><path d="m408 496v-224a48 48 0 0 0 -48-48h-240a48 48 0 0 0 -48 48v56a127.63919 127.63919 0 0 0 39.99963 92.95166l.00037-.00113v75.04947z" fill="#ffa100"/><path d="m301.83928 352v-32h.00005a169.54378 169.54378 0 0 0 42.16067-111.88676v-8.11324h72l-11.91253 55.59179a142.01634 142.01634 0 0 1 -60.08742 88.40821v8z" fill="#d1e4ff"/><path d="m442.97119 295.42773-5.94238-14.85546a88.00742 88.00742 0 0 1 -67.88867-1.07862 79.55236 79.55236 0 0 0 34.4375-8.33838 7.99984 7.99984 0 1 0 -7.15528-14.31054 63.85924 63.85924 0 0 1 -56.84472 0 7.99984 7.99984 0 1 0 -7.15528 14.31054 78.69934 78.69934 0 0 0 12.57514 4.98047 7.9941 7.9941 0 0 0 -.9975 3.86426v4.919a71.28838 71.28838 0 0 0 45.02881 66.50878l5.94238-14.85546a55.323 55.323 0 0 1 -34.36377-43.373 104.01467 104.01467 0 0 0 82.36377 2.22841z" fill="#b6caf0"/><g fill="#f78e00"><path d="m336 376h16v120h-16z"/><path d="m272 464h-72a135.37908 135.37908 0 0 1 -87.20758-31.63432 7.98332 7.98332 0 0 1 -.61956-11.59755 8.00576 8.00576 0 0 1 10.956-.61651 119.44917 119.44917 0 0 0 76.87114 27.84838h64v-40a8 8 0 0 1 8-8 8 8 0 0 1 8 8v48a8 8 0 0 1 -8 8z"/><path d="m176.00391 363.751a40.00036 40.00036 0 0 1 -40.00391-40v-19.751a8 8 0 0 1 8-8 8 8 0 0 1 8 8v19.32966a24.63282 24.63282 0 0 0 3.51324 12.937 24.02748 24.02748 0 0 0 23.46383 11.29876l84.09218-10.51158a8.00023 8.00023 0 0 1 8.93075 6.94628 8.00023 8.00023 0 0 1 -6.94616 8.93064l-84.09243 10.51161a40.09743 40.09743 0 0 1 -4.9575.30863z"/><path d="m232 224h16v120h-16z"/></g><path d="m310.838 224v34.19429a21.80573 21.80573 0 0 1 -21.80572 21.80571 21.80576 21.80576 0 0 1 -15.419-6.38676l-33.61328-33.61324h-.00006l-33.61319 33.61324a21.80573 21.80573 0 0 1 -15.41898 6.38676 21.80571 21.80571 0 0 1 -21.80577-21.80571v-34.19429z" fill="#ffc431"/><path d="m296 136.00006v48a55.99994 55.99994 0 0 1 -55.99994 55.99994h-.00012a55.99994 55.99994 0 0 1 -55.99994-55.99994v-48z" fill="#ffceb6"/><circle cx="224" cy="160" fill="#c47220" r="8"/><circle cx="264" cy="160" fill="#c47220" r="8"/><path d="m256 216h-14.11133a36.7425 36.7425 0 0 1 -33.04394-20.42188l14.31054-7.15624a20.83053 20.83053 0 0 0 18.7334 11.57812h14.11133z" fill="#ffb089"/><path d="m184 64h112v72h-112z" fill="#ffa100"/><path d="m240 104 72-40-72-40-72 40z" fill="#ffc431"/><path d="m272 344 19.871-19.871a14.09725 14.09725 0 0 1 9.96827-4.129 14.09724 14.09724 0 0 1 13.37382 9.6393l4.78691 14.3607h40v16a40 40 0 0 1 -40 40h-48z" fill="#ffceb6"/></svg>